<?xml version="1.0" encoding="iso-8859-1"?>
<!-- Generator: Adobe Illustrator 18.0.0, SVG Export Plug-In . SVG Version: 6.00 Build 0)  -->
<!DOCTYPE svg PUBLIC "-//W3C//DTD SVG 1.1//EN" "http://www.w3.org/Graphics/SVG/1.1/DTD/svg11.dtd">
<svg version="1.1" id="Capa_1" xmlns="http://www.w3.org/2000/svg" xmlns:xlink="http://www.w3.org/1999/xlink" x="0px" y="0px"
	 viewBox="0 0 463.89 463.89" style="enable-background:new 0 0 463.89 463.89;" xml:space="preserve">
<g>
	<path style="fill:#41996B;" d="M159.157,449.824c0,0,50.561-49.591,42.544-116.063C193.685,267.29,83.936,216.48,83.936,216.48
		S104.282,374.625,159.157,449.824z"/>
	<path style="fill:#41996B;" d="M320.424,449.771c0,0-62.51-37.77-57.533-92.342c4.977-54.572,47.657-92.171,47.657-92.171
		l53.859-1.016L320.424,449.771z"/>
	<g>
		<path style="fill:#E5CF98;" d="M159.475,212.466l-33.78,31.794c-23.006,21.654-60.242,15.89-75.626-11.705l-49.04-87.967
			l128.076,13.401L159.475,212.466z"/>
		<path style="fill:#E5CF98;" d="M304.415,212.466l33.78,31.794c23.006,21.654,60.242,15.89,75.626-11.705l49.04-87.967
			l-128.076,13.401L304.415,212.466z"/>
	</g>
	<path style="fill:#FCE7A7;" d="M267.745,353.046v27.692c0,0.642-0.012,1.284-0.059,1.926c-0.274,5.339-1.712,10.368-4.102,14.827
		c-5.993,11.32-17.907,19.048-31.628,19.048c-13.733,0-25.647-7.729-31.64-19.048c-2.39-4.459-3.829-9.488-4.102-14.827
		c-0.048-0.642-0.059-1.284-0.059-1.926v-27.692H267.745z"/>
	<path style="fill:#E5CF98;" d="M267.745,353.046v27.692c0,0.642-0.012,1.284-0.059,1.926c-11.45,2.794-23.424,4.268-35.73,4.268
		c-12.318,0-24.292-1.474-35.742-4.268c-0.048-0.642-0.059-1.284-0.059-1.926v-27.692H267.745z"/>
	<path style="fill:#FCE7A7;" d="M382.838,177.254v51.05c0,25.48-6.31,49.5-17.47,70.56c-7.4,13.96-16.93,26.62-28.15,37.55
		c-27.19,26.48-64.32,42.79-105.27,42.79c-37.95,0-72.63-14.01-99.15-37.15c-13.9-12.12-25.56-26.76-34.27-43.19
		c-11.15-21.06-17.48-45.08-17.48-70.56v-51.05c0-4.23,0.19-8.4,0.52-12.52c1.14-13.9,4.17-27.26,8.82-39.84
		c0.17-0.45,0.34-0.9,0.51-1.35c21.04-55.25,73.6-94.95,135.71-97.1c1.77-0.06,3.56-0.09,5.34-0.09c1.79,0,3.58,0.03,5.36,0.09
		c32.41,1.13,62.22,12.49,86.31,30.95c5.3,4.05,10.32,8.44,15.03,13.15c2.61,2.61,5.12,5.32,7.53,8.11
		c20.29,23.48,33.47,53.3,36.15,86.08C382.658,168.854,382.838,173.024,382.838,177.254z"/>
	<path style="fill:#E5CF98;" d="M382.838,177.254v51.05c0,25.48-6.31,49.5-17.47,70.56c-7.4,13.96-16.93,26.62-28.15,37.55
		c1.43-6.59,2.53-13.76,3.2-21.63c5.34-62.96-12.26-109.7-27.55-137.4c-1.56-2.81-2.85-5.73-3.86-8.7
		c-1.94-5.61-2.94-11.44-3.01-17.26v-0.01c-0.09-6.39,0.93-12.79,3.04-18.86c-13.79,21.68-43.85,56.84-91.44,51.16
		c-68.08-8.13-92.06,14.84-103.65,64.02c-5.99,25.42,4.98,60.14,18.85,94.32c-13.9-12.12-25.56-26.76-34.27-43.19
		c-11.15-21.06-17.48-45.08-17.48-70.56v-51.05c0-4.23,0.19-8.4,0.52-12.52c1.14-13.9,4.17-27.26,8.82-39.84
		c0.17-0.45,0.34-0.9,0.51-1.35c21.04-55.25,73.6-94.95,135.71-97.1c1.77-0.06,3.56-0.09,5.34-0.09c1.79,0,3.58,0.03,5.36,0.09
		c32.41,1.13,62.22,12.49,86.31,30.95c5.18,6.3,9.52,13.2,12.88,20.64c3.36,0,6.59,0.21,9.68,0.62
		c20.29,23.48,33.47,53.3,36.15,86.08C382.658,168.854,382.838,173.024,382.838,177.254z"/>
	<g>
		<path style="fill:#FFFFFF;" d="M157.654,256.666c-16.759,0-30.394-13.635-30.394-30.394s13.635-30.394,30.394-30.394
			s30.394,13.635,30.394,30.394S174.413,256.666,157.654,256.666z"/>
		<path style="fill:#FFFFFF;" d="M306.249,256.666c-16.759,0-30.394-13.635-30.394-30.394s13.635-30.394,30.394-30.394
			s30.394,13.635,30.394,30.394S323.008,256.666,306.249,256.666z"/>
		<path style="fill:#3C8E61;" d="M168.056,226.271c-5.745,0-10.402-4.657-10.402-10.402c0-3.59,1.818-6.755,4.585-8.624
			c-1.473-0.354-3.003-0.562-4.585-0.562c-10.818,0-19.588,8.77-19.588,19.587s8.77,19.587,19.588,19.587s19.588-8.77,19.588-19.587
			c0-1.582-0.208-3.111-0.562-4.585C174.81,224.453,171.645,226.271,168.056,226.271z"/>
		<path style="fill:#3C8E61;" d="M316.651,226.271c-5.745,0-10.402-4.657-10.402-10.402c0-3.59,1.819-6.755,4.585-8.624
			c-1.473-0.354-3.003-0.562-4.585-0.562c-10.818,0-19.588,8.77-19.588,19.587s8.77,19.587,19.588,19.587
			c10.818,0,19.588-8.77,19.588-19.587c0-1.582-0.208-3.111-0.562-4.585C323.405,224.453,320.241,226.271,316.651,226.271z"/>
	</g>
	<path style="fill:none;stroke:#EA535E;stroke-width:6;stroke-linecap:round;stroke-miterlimit:10;" d="M206.878,277.951
		c3.396,10.606,13.345,18.297,25.068,18.297s21.671-7.691,25.068-18.297"/>
	<polygon style="fill:#E5CF98;" points="211.348,250.588 231.95,231.927 252.551,250.588 	"/>
	<path style="fill:#E5CF98;" d="M310.079,117.553c0,0,0.27,13.604-4.365,28.638c-4.593,14.88-14.003,31.155-33.253,36.98
		c-28.304,8.573-47.194,16.954-57.179,43.97c0.192-0.917,6.738-30.393,28.103-42.304c6.727-3.755,13.531-8.287,19.735-13.355
		c13.819-11.265,24.617-25.137,24.775-38.734C288.131,113.059,310.079,117.553,310.079,117.553z"/>
	<path style="fill:#56BF8D;" d="M307.479,117.553c0,0-0.508,13.597-5.995,28.342c-5.437,14.592-15.761,30.303-35.313,35.018
		c-28.748,6.941-48.087,14.227-59.6,40.628c0.244-0.905,8.465-29.958,30.476-40.628c6.931-3.364,13.983-7.499,20.466-12.205
		c14.44-10.457,26.015-23.688,26.95-37.254C285.824,111.811,307.479,117.553,307.479,117.553z"/>
	<path style="fill:#56BF8D;" d="M397.941,273.387c16.259-126.009,5.081-210.354-63.004-210.354
		C298.831-16.992,148.393-35.162,78.021,94.018c-2.916,5.335-5.691,10.934-8.312,16.777c-4.776,10.66-8.343,21.452-10.853,32.315
		c-14.44,62.649,6.463,127.381,33.839,179.644c13.099,25.019,21.554,52.263,24.663,80.341c2.581,23.332,1.372,47.182-11.066,58.289
		c0,0,47.761,15.243,63.004-29.47c0-40.648-70.209-142.776-56.907-199.175c11.595-49.184,35.567-72.15,103.652-64.021
		c47.589,5.68,77.648-29.48,91.438-51.166c-2.104,6.077-3.13,12.469-3.038,18.861v0.01c0.071,5.823,1.067,11.656,3.008,17.265
		c1.016,2.967,2.307,5.884,3.862,8.699c15.294,27.702,32.894,74.437,27.549,137.4c-4.587,54.03-29.762,74.881-37.832,103.442
		c-7.395,26.173,12.798,52.399,39.979,51.463c0.567-0.02,1.141-0.047,1.721-0.084c0,0-0.785-2.166-1.726-5.778
		c-5.658-21.729-0.561-44.747,13.17-62.512C373.069,361.873,391.193,325.684,397.941,273.387z"/>
	<path style="fill:#41996B;" d="M334.937,63.034l-27.488,90.655c-1.941-5.609-2.937-11.442-3.008-17.265v-0.01L334.937,63.034z"/>
</g>
<g>
</g>
<g>
</g>
<g>
</g>
<g>
</g>
<g>
</g>
<g>
</g>
<g>
</g>
<g>
</g>
<g>
</g>
<g>
</g>
<g>
</g>
<g>
</g>
<g>
</g>
<g>
</g>
<g>
</g>
</svg>
